<svg xmlns="http://www.w3.org/2000/svg" width="122" height="90"><path d="M107.64 40.51c-4.15-2.08-11.94-2.11-12.27-2.11a1.8 1.8 0 000 3.59c2.01 0 7.84.32 10.67 1.74a1.868 1.868 0 00.8.18 1.8 1.8 0 00.8-3.4zm8.91 25.57l-7.38-2.12a.759.759 0 01-.55-.72v-2.48a12.6 12.6 0 001.71-1.4 13.238 13.238 0 004.03-9.56v-3.42l.71-1.43a11.581 11.581 0 001.2-5.1V30.6a1.8 1.8 0 00-1.79-1.8h-17.2a11.382 11.382 0 00-11.34 11.4v.11a9.566 9.566 0 001 4.23l.91 1.84v2.94a14.035 14.035 0 005.74 11.33v2.59c0 .4 0 .57-1.48.99l-3.6 1.03-10.42-3.8a1.792 1.792 0 00-.49-1.38l-3.33-3.51v-5.9c.36-.29.7-.59 1.04-.91a21.131 21.131 0 006.61-15.32v-4.71A20.847 20.847 0 0083.83 21V1.8A1.79 1.79 0 0082.04 0H55.29a17.137 17.137 0 00-17.07 17.16V21a20.847 20.847 0 001.91 8.73v4.05a22.008 22.008 0 007.64 16.75v6.04l-3.33 3.51a1.83 1.83 0 00-.49 1.38l-10.99 4.01a9.519 9.519 0 00-2.21 1.17l-1.73-.87c5.14-2.25 6.77-5.41 6.85-5.57a1.8 1.8 0 000-1.6c-1.29-2.59-1.45-7.34-1.57-11.15-.04-1.27-.08-2.47-.16-3.54-.61-8.61-7.12-15.11-15.16-15.11S4.44 35.3 3.83 43.91c-.08 1.07-.12 2.27-.16 3.54-.13 3.81-.28 8.56-1.57 11.15a1.8 1.8 0 000 1.6c.08.16 1.7 3.32 6.85 5.57l-4.79 2.41A7.5 7.5 0 000 74.94V88.2a1.785 1.785 0 103.57 0V74.94a3.943 3.943 0 012.18-3.55l5.98-3 2.07 1.98a7.49 7.49 0 0010.36 0l2.08-1.98 1.95.98a9.443 9.443 0 00-1.44 5.01V88.2a1.79 1.79 0 103.58 0V74.38a5.893 5.893 0 013.85-5.53l11.59-4.24 4.83 7.28a3.68 3.68 0 002.71 1.64c.12.01.25.01.37.01a3.669 3.669 0 002.61-1.08l2.95-2.96v18.7a1.785 1.785 0 103.57 0V69.5l2.94 2.96a3.686 3.686 0 002.61 1.08c.13 0 .25 0 .37-.01a3.7 3.7 0 002.72-1.64l4.82-7.28 11.59 4.24a5.9 5.9 0 013.86 5.53V88.2a1.785 1.785 0 103.57 0V74.38a9.487 9.487 0 00-2.64-6.57l.44-.13a8.988 8.988 0 001.66-.6l4.57 4.59V88.2a1.785 1.785 0 103.57 0V71.67l4.53-4.56a4.18 4.18 0 00.76.31l7.38 2.11a4 4 0 012.87 3.82V88.2a1.785 1.785 0 103.57 0V73.35a7.581 7.581 0 00-5.45-7.27zM11.46 62.91a12.872 12.872 0 01-5.73-3.7 20.067 20.067 0 001.02-4.3 13.383 13.383 0 004.71 5.85v2.15zm10.24 4.86a3.933 3.933 0 01-5.43 0l-1.67-1.59a3.608 3.608 0 00.44-1.75v-1.92a12.885 12.885 0 003.94.61 13.535 13.535 0 003.95-.6v1.91a3.715 3.715 0 00.43 1.75zm-2.71-8.25a9.709 9.709 0 01-9.68-9.72A1.8 1.8 0 007.52 48a1.358 1.358 0 00-.29.03c0-.15.01-.31.01-.46.04-1.24.08-2.4.15-3.4A13.408 13.408 0 0111 35.79a11.077 11.077 0 0115.97 0 13.408 13.408 0 013.61 8.38c.07 1 .11 2.16.15 3.4 0 .1 0 .21.01.32a16.077 16.077 0 00-8.83-6.48 22.5 22.5 0 00-6.8-1.09 1.8 1.8 0 00-1.23.55l-3.23 3.36a1.808 1.808 0 00.05 2.54 1.787 1.787 0 002.53-.04l2.68-2.8c2.31.11 9.74.98 12.63 7.38a9.66 9.66 0 01-9.55 8.21zm7.51 3.39v-2.14a13.237 13.237 0 004.72-5.85 19.973 19.973 0 001.02 4.29 12.861 12.861 0 01-5.74 3.7zm17.2-29.13v-4.46a1.782 1.782 0 00-.18-.78A17.268 17.268 0 0141.79 21v-3.84a13.555 13.555 0 0113.5-13.57h24.96V21a17.268 17.268 0 01-1.73 7.54 1.793 1.793 0 00-.18.79v5.11a17.288 17.288 0 01-5.47 12.7c-.45.41-.9.8-1.38 1.17a.053.053 0 00-.03.02 17.172 17.172 0 01-11.59 3.48C50.8 51.22 43.7 43.3 43.7 33.78zm10.06 36.14a.106.106 0 01-.1.03.125.125 0 01-.09-.05l-5.55-8.38 1.78-1.89 8.44 5.79zm7.26-6.93l-9.68-6.65v-3.35a20.023 20.023 0 008.29 2.4c.48.03.94.05 1.41.05a20.581 20.581 0 009.66-2.38v3.28zm7.45 6.91a.133.133 0 01-.19.02l-4.47-4.5 8.43-5.79 1.79 1.89zm32.63-1.52l-4.05-4.07a5.1 5.1 0 00.11-1.07v-.76a12.585 12.585 0 003.54.63c.14 0 .27.01.41.01a13.291 13.291 0 003.94-.6v.72a4.083 4.083 0 00.13 1.05zm6.74-11.6a9.553 9.553 0 01-7.03 2.74c-5.18-.16-9.38-4.73-9.38-10.2v-3.36a1.845 1.845 0 00-.19-.8l-1.11-2.22a6.035 6.035 0 01-.61-2.63v-.11a7.791 7.791 0 017.76-7.81h15.41v7.46a7.818 7.818 0 01-.82 3.49l-.9 1.82a1.845 1.845 0 00-.19.8v3.84a9.662 9.662 0 01-2.94 6.98zm4.73 18.11a1.788 1.788 0 00-1.79 1.79V88.2a1.79 1.79 0 103.58 0V76.68a1.788 1.788 0 00-1.79-1.79zM9.43 77.26a1.79 1.79 0 00-1.79 1.8v9.14a1.79 1.79 0 103.58 0v-9.14a1.79 1.79 0 00-1.79-1.8zm66.23-55.61c-6.76-6.8-20.9-5.5-26.67-4.62a3.678 3.678 0 00-3.13 3.67v4.14a1.785 1.785 0 103.57 0V20.7a.119.119 0 01.1-.12 55.876 55.876 0 0111.61-.57c5.57.37 9.61 1.78 11.99 4.18a1.793 1.793 0 002.53-2.54zM40 78.73a1.786 1.786 0 00-1.78 1.79v7.68a1.785 1.785 0 103.57 0v-7.68A1.788 1.788 0 0040 78.73zm42.04 0a1.788 1.788 0 00-1.79 1.79v7.68a1.79 1.79 0 103.58 0v-7.68a1.788 1.788 0 00-1.79-1.79z" fill="#2c2c2c" fill-rule="evenodd"/></svg>