<svg xmlns="http://www.w3.org/2000/svg" width="71" height="92"><path d="M35.553 7.96a2.655 2.655 0 11-2.662 2.65 2.659 2.659 0 012.662-2.65zM71 21.23a7.09 7.09 0 00-7.1-7.08h-9.857a10.6 10.6 0 00-4.944-3.12 4.9 4.9 0 01-3.363-3.35 10.663 10.663 0 00-20.472-.01 4.878 4.878 0 01-3.369 3.36 10.681 10.681 0 00-4.939 3.12H7.1A7.09 7.09 0 000 21.23v63.69A7.09 7.09 0 007.1 92h56.8a7.09 7.09 0 007.1-7.08V21.23zm-53.25-.06a7.115 7.115 0 015.128-6.74 8.406 8.406 0 005.8-5.78 7.112 7.112 0 0113.649 0 8.409 8.409 0 005.794 5.78 7.1 7.1 0 015.132 6.8v3.54h-35.5v-3.6zM63.9 88.46H7.1a3.55 3.55 0 01-3.55-3.54V21.23a3.55 3.55 0 013.55-3.54h7.708a10.623 10.623 0 00-.608 3.46v7.16h42.6v-7.08a10.584 10.584 0 00-.613-3.54H63.9a3.551 3.551 0 013.55 3.54v63.69a3.55 3.55 0 01-3.55 3.54zM24.85 38.92H56.8v3.54H24.85v-3.54zm0 10.62H56.8v3.54H24.85v-3.54zm0 10.61H56.8v3.54H24.85v-3.54zm0 10.62H56.8v3.54H24.85v-3.54zm-8.875-31.85a1.77 1.77 0 11-1.775 1.77 1.778 1.778 0 011.775-1.77zm0 10.62a1.77 1.77 0 11-1.775 1.77 1.771 1.771 0 011.775-1.77zm0 10.61a1.77 1.77 0 11-1.775 1.77 1.778 1.778 0 011.775-1.77zm0 10.62a1.77 1.77 0 11-1.775 1.77 1.771 1.771 0 011.775-1.77z" fill="#2c2c2c" fill-rule="evenodd"/></svg>