<svg xmlns="http://www.w3.org/2000/svg" width="227" height="227"><path d="M193.76 33.24A113.516 113.516 0 10227 113.5a112.8 112.8 0 00-33.24-80.26zm-5.02 155.5a106.394 106.394 0 1131.17-75.24 105.707 105.707 0 01-31.17 75.24zM21.281 113.5A92.229 92.229 0 01164.73 36.81a3.55 3.55 0 003.95-5.9 99.323 99.323 0 00-129.207 148.8 3.547 3.547 0 005.286-4.73 92.089 92.089 0 01-23.478-61.48zM196.09 58.32a3.55 3.55 0 00-5.9 3.95A92.227 92.227 0 0155.434 185.15a3.544 3.544 0 00-4.47 5.5A99.324 99.324 0 00196.09 58.32zm-21.11-13.56a93.087 93.087 0 016.83 6.79 3.547 3.547 0 105.25-4.77 101.38 101.38 0 00-7.35-7.31 3.548 3.548 0 00-4.73 5.29zm-61.48 1.35a3.549 3.549 0 003.547-3.55V31.92a3.547 3.547 0 10-7.094 0v10.64a3.549 3.549 0 003.547 3.55zm-3.547 138.33v10.64a3.547 3.547 0 007.094 0v-10.64a3.547 3.547 0 10-7.094 0zM46.109 113.5a3.549 3.549 0 00-3.546-3.55H31.922a3.55 3.55 0 000 7.1h10.641a3.549 3.549 0 003.546-3.55zm134.781 0a3.551 3.551 0 003.55 3.55h10.64a3.55 3.55 0 100-7.1h-10.64a3.551 3.551 0 00-3.55 3.55zM81.1 50.29l-5.32-9.21a3.545 3.545 0 10-6.144 3.54l5.321 9.22a3.547 3.547 0 106.143-3.55zm70.937 122.87a3.547 3.547 0 10-6.143 3.55l5.32 9.21a3.545 3.545 0 006.143-3.54zM42.852 157.84a3.564 3.564 0 001.77-.48l9.215-5.32a3.545 3.545 0 00-3.547-6.14l-9.215 5.32a3.549 3.549 0 001.78 6.62zm132.085-76.26a3.468 3.468 0 001.77-.48l9.21-5.32a3.544 3.544 0 10-3.54-6.14l-9.22 5.32a3.548 3.548 0 001.783 6.62zm-18.88-41.8a3.543 3.543 0 00-4.843 1.3l-5.32 9.21a3.548 3.548 0 006.144 3.55l5.319-9.22a3.54 3.54 0 00-1.297-4.84zM79.802 171.86a3.543 3.543 0 00-4.845 1.3l-5.321 9.22a3.545 3.545 0 106.144 3.54l5.32-9.21a3.553 3.553 0 00-1.295-4.85zm93.355-19.82l9.22 5.32a3.544 3.544 0 103.54-6.14l-9.21-5.32a3.546 3.546 0 10-3.547 6.14zM53.837 74.96l-9.215-5.32a3.545 3.545 0 00-3.547 6.14l9.215 5.32a3.461 3.461 0 001.77.48 3.549 3.549 0 001.78-6.62zm84.352 84.85a3.463 3.463 0 001.77-.48 3.543 3.543 0 001.3-4.84l-19.676-34.08a10.63 10.63 0 00-4.537-16.94V56.75a3.547 3.547 0 10-7.094 0v46.72a10.639 10.639 0 003.547 20.67 10.373 10.373 0 001.943-.18l19.674 34.08a3.558 3.558 0 003.076 1.77zM109.95 113.5a3.547 3.547 0 113.547 3.55 3.551 3.551 0 01-3.544-3.55z" fill="#fff" fill-rule="evenodd" opacity=".1"/></svg>