<svg xmlns="http://www.w3.org/2000/svg" width="230" height="227"><path d="M75.45 156.09c9.48 13.41 18.93 25.39 25.2 33.12.91 1.12 1.77 2.16 2.6 3.17H84.33a3.845 3.845 0 000 7.69h61.33a3.845 3.845 0 000-7.69h-18.91c.83-1.01 1.68-2.05 2.6-3.17 6.26-7.7 15.72-19.71 25.19-33.12a337.238 337.238 0 0025.32-40.96c7.83-15.43 11.8-28.23 11.8-38.07a77.023 77.023 0 00-22.45-54.48 3.84 3.84 0 10-5.42 5.44A69.36 69.36 0 01184 77.06c0 8.61-3.69 20.25-10.97 34.58a331.473 331.473 0 01-24.74 40.01c-9.35 13.23-18.69 25.08-24.88 32.7a673.28 673.28 0 01-5.49 6.66 3.87 3.87 0 01-5.84 0 673.28 673.28 0 01-5.49-6.66c-6.19-7.61-15.53-19.47-24.88-32.7a330.289 330.289 0 01-24.75-40.01C49.68 97.31 46 85.67 46 77.06a69.021 69.021 0 0195.87-63.9 3.847 3.847 0 002.99-7.09A76.822 76.822 0 0038.33 77.06c0 9.84 3.98 22.64 11.8 38.09a337.476 337.476 0 0025.32 40.94zM115 42.34a3.85 3.85 0 000-7.7 38.465 38.465 0 1027.1 11.27 3.821 3.821 0 00-6.46 1.7 3.874 3.874 0 001.04 3.74A30.629 30.629 0 11115 42.34zm113.55 167.62l-23.57-42.32a11.906 11.906 0 00-10.43-6.04h-27.32a3.845 3.845 0 000 7.69h27.32a4.261 4.261 0 013.74 2.1l23.57 42.32a3.471 3.471 0 01-.04 3.56 4.223 4.223 0 01-3.71 2.04H11.88a4.228 4.228 0 01-3.7-2.04 3.471 3.471 0 01-.04-3.56l23.57-42.32a4.261 4.261 0 013.74-2.1h27.32a3.845 3.845 0 000-7.69H35.45a11.922 11.922 0 00-10.44 6.04L1.44 209.96a11.2 11.2 0 00.12 11.2A11.817 11.817 0 0011.88 227h206.23a11.805 11.805 0 0010.32-5.84 11.18 11.18 0 00.12-11.2zm-40.72-29.13H172.5a3.924 3.924 0 00-2.13.65l-11.5 7.7a3.841 3.841 0 004.25 6.4l10.53-7.05h14.18a3.85 3.85 0 000-7.7zm-23 26.93a3.841 3.841 0 003.83 3.85h30.67a3.845 3.845 0 000-7.69h-30.67a3.839 3.839 0 00-3.83 3.84zM69 196.22a3.851 3.851 0 002.13-7.05l-11.5-7.69a3.842 3.842 0 00-2.13-.65H42.17a3.85 3.85 0 000 7.7h14.18l10.53 7.05a3.825 3.825 0 002.12.64zm-38.33 7.7a3.845 3.845 0 000 7.69h30.66a3.845 3.845 0 000-7.69H30.67z" fill="#fff" fill-rule="evenodd" opacity=".1"/></svg>